<svg width="18" height="18" viewBox="0 0 18 18" fill="none" xmlns="http://www.w3.org/2000/svg">
<path d="M15.0981 6.82031H10.5823C10.3881 6.82031 10.2307 6.97771 10.2307 7.17187C10.2307 7.36604 10.3881 7.52343 10.5823 7.52343H13.7112V9.03514C13.7112 9.82991 13.0645 10.4765 12.2698 10.4765H5.73072C4.93595 10.4765 4.28932 9.82991 4.28932 9.03514V7.52343H7.41822C7.61238 7.52343 7.76978 7.36604 7.76978 7.17187C7.76978 6.97771 7.61238 6.82031 7.41822 6.82031H2.90234C2.70818 6.82031 2.55078 6.97771 2.55078 7.17187C2.55078 7.36604 2.70818 7.52343 2.90234 7.52343H3.5862V9.03514C3.5862 10.0767 4.33277 10.9469 5.31883 11.1395L3.91596 17.5734C3.89329 17.6774 3.91895 17.786 3.98564 17.8689C4.05237 17.9517 4.15306 17.9999 4.25944 17.9999H5.78476C5.95013 17.9999 6.09311 17.8847 6.12827 17.7231L6.92863 14.0449H11.0718L11.8722 17.7231C11.9073 17.8847 12.0503 17.9999 12.2157 17.9999H13.741C13.8474 17.9999 13.9481 17.9518 14.0148 17.8689C14.0815 17.786 14.1072 17.6774 14.0845 17.5734L12.6816 11.1395C13.6676 10.9469 14.4142 10.0767 14.4142 9.03514V7.52343H15.0981C15.2922 7.52343 15.4496 7.36604 15.4496 7.17187C15.4497 6.97771 15.2923 6.82031 15.0981 6.82031ZM5.50147 17.2968H4.6959L6.02972 11.1797H6.83251L5.50147 17.2968ZM7.08163 13.3418L7.55209 11.1797H10.4484L10.9188 13.3418H7.08163ZM12.499 17.2968L11.168 11.1797H11.9708L13.3046 17.2968H12.499Z" fill="#696969"/>
<path d="M15.9269 4.49972C15.7328 4.49972 15.5754 4.65711 15.5754 4.85128C15.5754 5.0839 15.3861 5.27315 15.1535 5.27315C14.9209 5.27315 14.7316 5.0839 14.7316 4.85128C14.7316 4.65711 14.5742 4.49972 14.3801 4.49972H13.7665C13.6185 4.05109 13.1956 3.72629 12.698 3.72629C12.4631 3.72629 12.2449 3.79874 12.0643 3.92235C11.9393 3.80124 11.7692 3.72629 11.5818 3.72629H10.7205C10.5331 3.72629 10.3631 3.80124 10.238 3.92235C10.0574 3.79874 9.83918 3.72629 9.6043 3.72629C9.37061 3.72629 9.15338 3.79797 8.97331 3.92042C8.84802 3.79769 8.67677 3.72171 8.48795 3.72171H7.62663C7.43784 3.72171 7.26663 3.79769 7.14133 3.92035C6.9613 3.79793 6.74407 3.72629 6.51042 3.72629C6.27674 3.72629 6.05951 3.79797 5.87944 3.92038C5.75414 3.79765 5.58289 3.72168 5.39411 3.72168H4.53278C4.14993 3.72168 3.83845 4.03316 3.83845 4.41601V4.49968H2.07519C1.88103 4.49968 1.72363 4.65708 1.72363 4.85124C1.72363 5.04541 1.88103 5.2028 2.07519 5.2028H3.83841V5.27733C3.83841 5.66018 4.1499 5.97166 4.53275 5.97166H5.39407C5.58015 5.97166 5.74897 5.89769 5.87378 5.77809C6.05497 5.90293 6.27424 5.97623 6.51042 5.97623C6.74656 5.97623 6.96583 5.90293 7.14699 5.77816C7.27176 5.89769 7.44058 5.97166 7.62663 5.97166H8.48795C8.67403 5.97166 8.84285 5.89769 8.96766 5.77809C9.14885 5.90293 9.36812 5.97623 9.6043 5.97623C9.83921 5.97623 10.0574 5.90378 10.238 5.78017C10.3631 5.90128 10.5331 5.97623 10.7205 5.97623H11.5818C11.7692 5.97623 11.9393 5.90128 12.0643 5.78017C12.2449 5.90378 12.4632 5.97623 12.698 5.97623C13.1956 5.97623 13.6185 5.65143 13.7665 5.2028H14.0848C14.2327 5.6515 14.6559 5.97623 15.1535 5.97623C15.7738 5.97623 16.2785 5.47157 16.2785 4.85124C16.2785 4.65711 16.1211 4.49972 15.9269 4.49972ZM5.38532 5.26854H4.54157V4.4248H5.38532V5.26854ZM6.51042 5.27315C6.27779 5.27315 6.08855 5.0839 6.08855 4.85128C6.08855 4.61865 6.27779 4.4294 6.51042 4.4294C6.74305 4.4294 6.93229 4.61865 6.93229 4.85128C6.93229 5.0839 6.74305 5.27315 6.51042 5.27315ZM8.47916 5.26854H7.63541V4.4248H8.47916V5.26854ZM9.6043 5.27315C9.37167 5.27315 9.18242 5.0839 9.18242 4.85128C9.18242 4.61865 9.37167 4.4294 9.6043 4.4294C9.83692 4.4294 10.0262 4.61865 10.0262 4.85128C10.0262 5.0839 9.83692 5.27315 9.6043 5.27315ZM11.573 5.27315H10.7293V4.4294H11.573V5.27315ZM12.698 5.27315C12.4654 5.27315 12.2762 5.0839 12.2762 4.85128C12.2762 4.61865 12.4654 4.4294 12.698 4.4294C12.9307 4.4294 13.1199 4.61865 13.1199 4.85128C13.1199 5.0839 12.9307 5.27315 12.698 5.27315Z" fill="#696969"/>
<path d="M11.7017 2.37115C11.6132 2.54401 11.6816 2.7558 11.8545 2.84428C11.9057 2.87051 11.9604 2.88296 12.0143 2.88296C12.1421 2.88296 12.2654 2.81307 12.3276 2.69149C12.5535 2.25 12.5535 1.72283 12.3276 1.28134C12.2043 1.04042 12.2043 0.752733 12.3276 0.511807C12.416 0.338944 12.3476 0.127163 12.1748 0.0386747C12.002 -0.0497785 11.7901 0.0186356 11.7017 0.191464C11.4757 0.632956 11.4757 1.16012 11.7017 1.60162C11.8249 1.84254 11.8249 2.13023 11.7017 2.37115Z" fill="#696969"/>
<path d="M8.69339 2.37115C8.60494 2.54401 8.67335 2.7558 8.84618 2.84428C8.89747 2.87051 8.95214 2.88296 9.00604 2.88296C9.13383 2.88296 9.25709 2.81307 9.31928 2.69149C9.54524 2.25 9.54524 1.72283 9.31928 1.28134C9.19599 1.04042 9.19599 0.752733 9.31928 0.511807C9.40774 0.338944 9.33932 0.127163 9.16649 0.0386747C8.99373 -0.0497785 8.78184 0.0186356 8.69339 0.191464C8.46744 0.632956 8.46744 1.16012 8.69339 1.60162C8.81668 1.84254 8.81668 2.13023 8.69339 2.37115Z" fill="#696969"/>
<path d="M5.68268 2.37115C5.59423 2.54401 5.66264 2.7558 5.83547 2.84428C5.88676 2.87051 5.94143 2.88296 5.99532 2.88296C6.12312 2.88296 6.24637 2.81307 6.30856 2.69149C6.53451 2.25 6.53451 1.72283 6.30856 1.28134C6.18527 1.04042 6.18527 0.752733 6.30856 0.511807C6.39702 0.338944 6.3286 0.127163 6.15578 0.0386747C5.98298 -0.0497785 5.77113 0.0186356 5.68264 0.191464C5.4567 0.632956 5.4567 1.16012 5.68264 1.60162C5.80597 1.84254 5.80597 2.13023 5.68268 2.37115Z" fill="#696969"/>
<path d="M9.24953 7.42043C9.31492 7.35504 9.35254 7.26434 9.35254 7.17188C9.35254 7.07941 9.31492 6.98871 9.24953 6.92332C9.18414 6.85793 9.09344 6.82031 9.00098 6.82031C8.90852 6.82031 8.81781 6.85793 8.75242 6.92332C8.68703 6.98871 8.64941 7.07941 8.64941 7.17188C8.64941 7.26434 8.68703 7.35504 8.75242 7.42043C8.81781 7.48582 8.90852 7.52344 9.00098 7.52344C9.09344 7.52344 9.18414 7.48579 9.24953 7.42043Z" fill="#696969"/>
</svg>
