<svg width="19" height="19" viewBox="0 0 19 19" fill="none" xmlns="http://www.w3.org/2000/svg">
<path d="M17.2372 8.626V4.39487C17.2372 3.46205 16.4782 2.70312 15.5454 2.70312H3.45459C2.52177 2.70312 1.76284 3.46205 1.76284 4.39487V8.626C0.74768 8.90703 0 9.83848 0 10.9418V14.1567C0 14.4682 0.252566 14.7208 0.564062 14.7208H1.76284V15.7355C1.76284 16.047 2.01541 16.2996 2.32691 16.2996C2.6384 16.2996 2.89097 16.047 2.89097 15.7355V14.7208H16.109V15.7355C16.109 16.047 16.3616 16.2996 16.6731 16.2996C16.9846 16.2996 17.2372 16.047 17.2372 15.7355V14.7208H18.4359C18.7474 14.7208 19 14.4682 19 14.1567V10.9418C19 9.83848 18.2523 8.90703 17.2372 8.626ZM2.89097 4.39487C2.89097 4.08411 3.14383 3.83125 3.45459 3.83125H15.5455C15.8562 3.83125 16.1091 4.08411 16.1091 4.39487V8.53872H14.7874V7.40648C14.7874 6.42193 13.9864 5.62096 13.0019 5.62096H10.7215C10.2493 5.62096 9.81966 5.80551 9.50004 6.10591C9.18041 5.80554 8.75076 5.62096 8.27858 5.62096H5.99817C5.01362 5.62096 4.21266 6.42197 4.21266 7.40648V8.53872H2.89097V4.39487ZM13.6593 7.40648V8.53872H10.0641V7.40648C10.0641 7.04396 10.359 6.74909 10.7215 6.74909H13.0019C13.3644 6.74909 13.6593 7.04399 13.6593 7.40648ZM8.9359 7.40648V8.53872H5.34067V7.40648C5.34067 7.04396 5.63562 6.74909 5.99806 6.74909H8.27847C8.64099 6.74909 8.9359 7.04399 8.9359 7.40648ZM17.8719 13.5926H1.12812V10.9418C1.12812 10.2388 1.70005 9.66685 2.40309 9.66685H16.5969C17.2999 9.66685 17.8719 10.2388 17.8719 10.9418V13.5926Z" fill="white"/>
</svg>
