<svg width="19" height="19" viewBox="0 0 19 19" fill="none" xmlns="http://www.w3.org/2000/svg">
<path d="M18.2733 7.61281L17.8592 7.17435L16.4058 3.25662C16.1581 2.59486 15.5248 2.1564 14.8184 2.15234H4.43739C3.73098 2.15234 3.09765 2.59486 2.85 3.25662L1.41688 7.12563L0.820086 7.67777C0.300427 8.12029 0 8.76987 0 9.45192V15.16C0.00405983 16.0938 0.763248 16.8489 1.69701 16.8489H2.7688C3.70256 16.8489 4.46175 16.0938 4.46581 15.16V14.3318H14.5342V15.16C14.5382 16.0938 15.2974 16.8489 16.2312 16.8489H17.303C18.2368 16.8489 18.9959 16.0938 19 15.16V9.3017C18.9959 8.66431 18.7361 8.05534 18.2733 7.61281ZM3.61325 3.53269C3.74316 3.1876 4.07201 2.96431 4.43739 2.96431H14.8224C15.1878 2.96431 15.5167 3.19166 15.6466 3.53269L16.9132 6.94294H15.9673C15.744 5.42051 14.3271 4.36901 12.8047 4.59636C11.5908 4.77499 10.6368 5.72905 10.4581 6.94294H2.34658L3.61325 3.53269ZM15.1391 6.94294H11.2782C11.5015 5.87521 12.5489 5.19316 13.6167 5.41645C14.3799 5.57884 14.9767 6.17563 15.1391 6.94294ZM3.65385 15.16C3.64979 15.6472 3.25598 16.037 2.7688 16.037H1.69701C1.20983 16.037 0.816026 15.6472 0.811966 15.16V14.0964C1.05556 14.2547 1.37628 14.3318 1.69701 14.3318H3.65385V15.16ZM18.188 15.16C18.184 15.6472 17.7902 16.037 17.303 16.037H16.2312C15.744 16.037 15.3502 15.6432 15.3462 15.16V14.3318H17.303C17.6237 14.3318 17.9444 14.2547 18.188 14.0964V15.16ZM17.303 13.5199H1.69701C1.21389 13.5239 0.816026 13.1382 0.811966 12.6511V9.45192C0.811966 9.00533 1.0109 8.57905 1.35192 8.2908C1.35598 8.28675 1.3641 8.27863 1.36816 8.27457L1.9203 7.75491H17.2949L17.6846 8.17307C17.6887 8.18119 17.7009 8.18525 17.7049 8.19337C18.0094 8.48162 18.184 8.88354 18.184 9.3017V12.6511H18.188C18.184 13.1342 17.7861 13.5239 17.303 13.5199Z" fill="white"/>
<path d="M5.35906 9.37891H2.31419C2.0909 9.37891 1.9082 9.5616 1.9082 9.78489V11.896C1.9082 12.1193 2.0909 12.302 2.31419 12.302H5.35906C5.58235 12.302 5.76504 12.1193 5.76504 11.896V9.78489C5.76504 9.5616 5.58235 9.37891 5.35906 9.37891ZM4.95308 11.49H2.72017V10.1909H4.95308V11.49Z" fill="white"/>
<path d="M16.6852 9.37891H13.6404C13.4171 9.37891 13.2344 9.5616 13.2344 9.78489V11.896C13.2344 12.1193 13.4171 12.302 13.6404 12.302H16.6852C16.9085 12.302 17.0912 12.1193 17.0912 11.896V9.78489C17.0912 9.5616 16.9085 9.37891 16.6852 9.37891ZM16.2792 11.49H14.0463V10.1909H16.2792V11.49Z" fill="white"/>
<path d="M11.4606 11.082H7.5388C7.3155 11.082 7.13281 11.2647 7.13281 11.488C7.13281 11.7113 7.3155 11.894 7.5388 11.894H11.4606C11.6839 11.894 11.8666 11.7113 11.8666 11.488C11.8666 11.2647 11.6839 11.082 11.4606 11.082Z" fill="white"/>
<path d="M11.4606 9.82422H7.5388C7.3155 9.82422 7.13281 10.0069 7.13281 10.2302C7.13281 10.4535 7.3155 10.6362 7.5388 10.6362H11.4606C11.6839 10.6362 11.8666 10.4535 11.8666 10.2302C11.8666 10.0069 11.6839 9.82422 11.4606 9.82422Z" fill="white"/>
</svg>
