<svg width="20" height="20" viewBox="0 0 20 20" fill="none" xmlns="http://www.w3.org/2000/svg">
<g clip-path="url(#clip0_1987_29330)">
<path d="M19.7649 4.7939C19.5949 4.6096 19.353 4.50391 19.1013 4.50391H18.8342C18.1339 4.50391 17.5596 5.02627 17.4983 5.71898L17.2094 8.98777C17.1838 9.27746 16.9436 9.49594 16.6507 9.49594H14.1497C13.3483 9.49594 12.6963 10.1433 12.6963 10.939V11.0824C12.6963 11.5632 13.0902 11.9542 13.5743 11.9542H14.1104L13.5825 13.666C13.5821 13.6673 13.5817 13.6686 13.5813 13.6699L13.1778 14.9783C13.1304 15.132 13.2175 15.2946 13.3721 15.3416C13.4007 15.3503 13.4296 15.3545 13.458 15.3545C13.5834 15.3545 13.6994 15.2739 13.738 15.1487L14.0784 14.0452H18.0967L18.437 15.1487C18.4756 15.2739 18.5916 15.3545 18.717 15.3545C18.7455 15.3545 18.7744 15.3503 18.8029 15.3416C18.9576 15.2946 19.0446 15.1319 18.9972 14.9783L18.0396 11.8729C18.2077 11.8257 18.3701 11.7584 18.5224 11.6717C18.6628 11.5918 18.7114 11.4141 18.6309 11.2747C18.5504 11.1354 18.3714 11.0871 18.231 11.167C17.9949 11.3014 17.7256 11.3725 17.4521 11.3725H14.5067C14.5057 11.3725 14.5048 11.3725 14.5038 11.3725H13.5744C13.4134 11.3725 13.2823 11.2424 13.2823 11.0825V10.9391C13.2823 10.4641 13.6714 10.0778 14.1498 10.0778H16.6508C17.2497 10.0778 17.7408 9.63103 17.7932 9.03866L18.0821 5.76982C18.1165 5.3798 18.4399 5.08565 18.8342 5.08565H19.1013C19.1905 5.08565 19.2728 5.1216 19.333 5.18688C19.3932 5.25215 19.4221 5.33667 19.4143 5.42487L19.0142 9.95155C19.0044 10.0632 18.9824 10.1736 18.9491 10.2798C18.901 10.4332 18.9872 10.5963 19.1417 10.6441C19.2964 10.6918 19.4604 10.6062 19.5086 10.4529C19.5544 10.3069 19.5844 10.1554 19.5979 10.0024L19.998 5.47571C20.0199 5.22675 19.935 4.97821 19.7649 4.7939ZM14.7231 11.9543H17.4518L17.9172 13.4634H14.2577L14.7231 11.9543Z" fill="#696969"/>
<path d="M5.85261 9.49691H3.3516C3.05867 9.49691 2.81852 9.27847 2.79289 8.98874L2.50399 5.71995C2.44278 5.02724 1.86848 4.50488 1.16813 4.50488H0.90106C0.649342 4.50488 0.407429 4.61057 0.23739 4.79488C0.0673512 4.97919 -0.0175705 5.22773 0.00438254 5.47677L0.40446 10.0034C0.451686 10.5376 0.696998 11.0313 1.09524 11.3936C1.34543 11.6211 1.6425 11.7844 1.96266 11.8744L1.00508 14.9793C0.957701 15.133 1.04473 15.2956 1.19942 15.3426C1.22801 15.3513 1.25692 15.3555 1.28532 15.3555C1.41067 15.3555 1.52672 15.2749 1.56532 15.1497L1.90563 14.0462H5.92398L6.26429 15.1497C6.30289 15.2749 6.4189 15.3555 6.54429 15.3555C6.57273 15.3555 6.60164 15.3513 6.63019 15.3426C6.78488 15.2956 6.87191 15.1329 6.82453 14.9793L6.42101 13.6709C6.42062 13.6696 6.42023 13.6683 6.41984 13.667L5.89195 11.9552H6.428C6.91218 11.9552 7.30601 11.5642 7.30601 11.0834V10.94C7.30601 10.1443 6.65402 9.49691 5.85261 9.49691ZM2.08504 13.4643L2.55043 11.9552H5.27914L5.74453 13.4643H2.08504ZM6.72007 11.0834C6.72007 11.2433 6.58906 11.3734 6.428 11.3734H5.49879C5.49761 11.3734 5.49648 11.3734 5.49531 11.3734H2.55028C2.48762 11.3734 2.42598 11.3694 2.36528 11.3624C2.36524 11.3624 2.36516 11.3624 2.36508 11.3624C1.63211 11.2783 1.05422 10.7006 0.988131 9.95252L0.588053 5.42588C0.580241 5.33764 0.609147 5.25313 0.669381 5.18785C0.729576 5.12258 0.811842 5.08662 0.901021 5.08662H1.16809C1.56243 5.08662 1.88579 5.38073 1.92024 5.7708L2.20914 9.03959V9.03955C2.26149 9.63192 2.75262 10.0787 3.35156 10.0787H5.85257C6.33089 10.0787 6.72003 10.465 6.72003 10.94V11.0834H6.72007Z" fill="#696969"/>
<path d="M12.2253 14.3948C12.1044 13.9333 11.6847 13.6111 11.2045 13.6111H11.0232V8.31554H14.6307C14.8385 8.31554 15.033 8.22381 15.1644 8.0639C15.2957 7.90395 15.3471 7.69629 15.3052 7.49414C15.1792 6.88583 14.6338 6.44434 14.0083 6.44434H7.91742C7.75558 6.44434 7.62445 6.57458 7.62445 6.73523C7.62445 6.89588 7.75558 7.02612 7.91742 7.02612H14.0083C14.357 7.02612 14.661 7.27225 14.7312 7.61131C14.7398 7.65258 14.7217 7.68225 14.7103 7.69629C14.6987 7.71029 14.6731 7.73379 14.6307 7.73379H5.37082C5.32844 7.73379 5.30282 7.71029 5.29129 7.69629C5.27981 7.68229 5.26176 7.65258 5.27032 7.61135C5.34055 7.27225 5.64453 7.02612 5.99321 7.02612H6.54336C6.7052 7.02612 6.83633 6.89588 6.83633 6.73523C6.83633 6.57458 6.7052 6.44434 6.54336 6.44434H5.99321C5.36774 6.44434 4.82235 6.88583 4.69637 7.49418C4.65454 7.69633 4.70586 7.90398 4.83719 8.0639C4.96852 8.22381 5.16301 8.31554 5.37082 8.31554H8.97843V13.6111H8.79711C8.31691 13.6111 7.89715 13.9334 7.77625 14.3948L7.70746 14.6572C7.66344 14.8254 7.69953 15.0005 7.80652 15.138C7.91355 15.2754 8.07527 15.3543 8.25019 15.3543H11.7514C11.9263 15.3543 12.088 15.2755 12.195 15.138C12.302 15.0006 12.3381 14.8254 12.2941 14.6572L12.2253 14.3948ZM9.56437 8.31554H10.4373V13.6111H9.56437V8.31554ZM8.28269 14.7724L8.34332 14.5412C8.39703 14.3361 8.58363 14.1929 8.79707 14.1929H11.2044C11.4179 14.1929 11.6045 14.3361 11.6582 14.5412L11.7188 14.7724H8.28269Z" fill="#696969"/>
</g>
<defs>
<clipPath id="clip0_1987_29330">
<rect width="20" height="19.8582" fill="white"/>
</clipPath>
</defs>
</svg>
