<svg width="14" height="15" viewBox="0 0 14 15" fill="none" xmlns="http://www.w3.org/2000/svg">
<path d="M3.0625 4.82012C3.77114 4.82012 4.34766 4.23948 4.34766 3.52578C4.34766 2.81208 3.77114 2.23145 3.0625 2.23145C2.35386 2.23145 1.77734 2.81208 1.77734 3.52578C1.77734 4.23948 2.35386 4.82012 3.0625 4.82012ZM3.0625 3.05762C3.31882 3.05762 3.52734 3.26763 3.52734 3.52578C3.52734 3.78393 3.31882 3.99395 3.0625 3.99395C2.80618 3.99395 2.59766 3.78393 2.59766 3.52578C2.59766 3.26763 2.80618 3.05762 3.0625 3.05762Z" fill="#696969"/>
<path d="M11.1971 1.57209L9.01904 1.35274C2.69946 0.409807 3.10945 0.468493 3.0625 0.468493C1.37383 0.468493 0 1.83977 0 3.52533C0 4.12612 0.174645 4.68693 0.475781 5.15999C0.483191 5.19224 0.841313 6.45243 2.23062 11.3498C2.28093 11.5271 2.44188 11.6494 2.625 11.6494H2.87109V13.2191C2.87109 13.4472 3.05473 13.6322 3.28125 13.6322C3.50777 13.6322 3.69141 13.4472 3.69141 13.2191V11.6494H4.15625C4.38277 11.6494 4.56641 11.4644 4.56641 11.2363V6.36229L9.01901 5.69791L11.197 5.47856C11.4067 5.45744 11.5664 5.27973 11.5664 5.06752V1.98314C11.5664 1.77093 11.4067 1.59322 11.1971 1.57209ZM3.03352 1.29486L8.55859 2.11921V4.93142L3.03352 5.7558C1.81043 5.74035 0.820312 4.74569 0.820312 3.52533C0.820312 2.30496 1.81043 1.31031 3.03352 1.29486ZM3.74609 10.8232H2.93437L1.6304 6.22663C2.05803 6.45342 2.54546 6.58216 3.0625 6.58216C3.10557 6.58216 3.07308 6.58508 3.74609 6.48468V10.8232ZM10.7461 4.69367L9.37891 4.83137V2.21929L10.7461 2.35698V4.69367Z" fill="#696969"/>
<path d="M12.9062 3.05762H13.5898C13.8164 3.05762 14 2.87266 14 2.64453C14 2.4164 13.8164 2.23145 13.5898 2.23145H12.9062C12.6797 2.23145 12.4961 2.4164 12.4961 2.64453C12.4961 2.87266 12.6797 3.05762 12.9062 3.05762Z" fill="#696969"/>
<path d="M13.5898 3.99316H12.9062C12.6797 3.99316 12.4961 4.17812 12.4961 4.40625C12.4961 4.63438 12.6797 4.81934 12.9062 4.81934H13.5898C13.8164 4.81934 14 4.63438 14 4.40625C14 4.17812 13.8164 3.99316 13.5898 3.99316Z" fill="#696969"/>
</svg>
