<svg width="20" height="20" viewBox="0 0 20 20" fill="none" xmlns="http://www.w3.org/2000/svg">
<g clip-path="url(#clip0_1987_29124)">
<path d="M12.8876 0.115509C12.7959 0.018921 12.6702 -0.0390625 12.5399 -0.0390625H4.73789C3.29822 -0.0390625 2.10986 1.14456 2.10986 2.58408V17.3377C2.10986 18.7773 3.29822 19.961 4.73789 19.961H15.3272C16.7669 19.961 17.9552 18.7773 17.9552 17.3377V5.62272C17.9552 5.49714 17.8972 5.37644 17.8152 5.28459L12.8876 0.115509ZM13.0277 1.66626L16.3273 5.13001H14.1823C13.5447 5.13001 13.0277 4.61793 13.0277 3.98026V1.66626ZM15.3272 18.9948H4.73789C3.83457 18.9948 3.07605 18.246 3.07605 17.3377V2.58408C3.07605 1.68076 3.82968 0.927126 4.73789 0.927126H12.0615V3.98026C12.0615 5.15412 13.0085 6.0962 14.1823 6.0962H16.989V17.3377C16.989 18.246 16.2354 18.9948 15.3272 18.9948Z" fill="#696969"/>
<path d="M14.008 15.6611H6.05634C5.79068 15.6611 5.57324 15.8784 5.57324 16.1442C5.57324 16.4099 5.79068 16.6273 6.05634 16.6273H14.0129C14.2786 16.6273 14.496 16.4099 14.496 16.1442C14.496 15.8784 14.2786 15.6611 14.008 15.6611Z" fill="#696969"/>
<path d="M9.6798 13.9273C9.77166 14.0239 9.89724 14.0819 10.0324 14.0819C10.1678 14.0819 10.2934 14.0239 10.3851 13.9273L13.216 10.8886C13.3996 10.6953 13.3851 10.3862 13.1919 10.2075C12.9986 10.0239 12.6894 10.0383 12.5108 10.2316L10.5155 12.3717V7.09638C10.5155 6.83057 10.2981 6.61328 10.0324 6.61328C9.76678 6.61328 9.54934 6.83057 9.54934 7.09638V12.3717L7.55898 10.2316C7.37541 10.0384 7.071 10.0239 6.87782 10.2075C6.68465 10.3911 6.67015 10.6955 6.85371 10.8886L9.6798 13.9273Z" fill="#696969"/>
</g>
<defs>
<clipPath id="clip0_1987_29124">
<rect width="20" height="20" fill="white"/>
</clipPath>
</defs>
</svg>
