<svg width="16" height="16" viewBox="0 0 16 16" fill="none" xmlns="http://www.w3.org/2000/svg">
<g clip-path="url(#clip0_1987_29271)">
<path d="M0.124051 5.43754C1.17786 6.22798 2.13829 7.13841 2.94882 8.11088C2.1667 7.83944 1.3007 7.68757 0.472487 7.68757H0.31155C0.173832 7.68757 0.052364 7.77772 0.0124579 7.9095C-0.0274482 8.04132 0.0236141 8.18369 0.138207 8.26006C0.297176 8.40075 2.27739 9.41309 2.84701 11.4873C1.95639 11.6785 1.27511 12.4061 1.1463 13.3125H0.311582C0.138989 13.3125 -0.000917051 13.4524 -0.000917051 13.625C-0.000917051 13.7976 0.138989 13.9375 0.311582 13.9375H3.93657C4.10916 13.9375 4.24907 13.7976 4.24907 13.625C4.24907 13.4524 4.10916 13.3125 3.93657 13.3125H1.78026C1.91951 12.6221 2.51148 12.0961 3.24185 12.0641C3.66557 12.0451 4.07604 12.197 4.38544 12.49C4.5335 12.6302 4.7745 12.5932 4.87356 12.4148C5.30687 11.634 6.13156 11.125 7.06156 11.125C7.85021 11.125 8.55308 11.4871 9.01502 12.0654C8.76414 12.3707 8.62405 12.7553 8.62405 13.1563C8.62405 13.2087 8.62655 13.2608 8.63124 13.3125H6.74909C6.57649 13.3125 6.43659 13.4524 6.43659 13.625C6.43659 13.7976 6.57649 13.9375 6.74909 13.9375H15.6865C15.8591 13.9375 15.999 13.7976 15.999 13.625C15.999 13.4524 15.8591 13.3125 15.6865 13.3125H14.8518C14.723 12.406 14.0416 11.6783 13.1511 11.4872C13.7205 9.41393 15.6972 8.40397 15.8599 8.26003C15.9745 8.18366 16.0255 8.04128 15.9856 7.90947C15.9457 7.77769 15.8242 7.68754 15.6865 7.68754H15.5256C14.7835 7.68754 13.9953 7.80913 13.2863 8.02482C14.4137 6.39513 15.694 5.59276 15.874 5.43757C15.9907 5.35001 16.0314 5.19329 15.9718 5.06001C15.9123 4.92673 15.7684 4.85248 15.6252 4.88108C13.7807 5.24992 12.0902 6.17079 10.8076 7.43685C10.9888 6.04985 11.3979 4.7132 12.0285 3.4523C12.0887 3.33199 12.0651 3.18668 11.97 3.09158C11.8748 2.99649 11.7296 2.97287 11.6093 3.03302C9.94967 3.8628 8.63342 5.33583 8.02968 7.20363C7.06306 5.09373 5.47134 3.3063 3.47232 2.10706C3.34932 2.03324 3.19195 2.05265 3.09057 2.15406C2.98917 2.25546 2.96982 2.41284 3.04357 2.53577C4.10385 4.39111 4.79856 5.20111 5.33031 6.85423C3.96888 5.5697 2.10354 4.87498 0.31155 4.87498C0.177051 4.87498 0.0576452 4.96105 0.0150829 5.08864C-0.0274169 5.21633 0.0164579 5.35683 0.124051 5.43754ZM4.5225 11.8028C4.21275 11.5964 3.85563 11.4729 3.48132 11.4441C3.20482 10.3149 2.45307 9.20981 1.40226 8.37841C2.24632 8.49606 3.07523 8.76691 3.74144 9.15131C4.22669 9.85153 4.63591 10.5772 4.96028 11.3123C4.797 11.4605 4.65056 11.6243 4.5225 11.8028ZM14.2178 13.3125H9.26027C9.25295 13.2611 9.24905 13.209 9.24905 13.1563C9.24905 12.8393 9.38648 12.5381 9.62611 12.33C9.82479 12.1575 10.0793 12.0625 10.3428 12.0625C10.6646 12.0625 10.9687 12.2033 11.177 12.4488C11.1771 12.4489 11.1772 12.449 11.1773 12.4491C11.2917 12.5835 11.4967 12.5964 11.627 12.4765C11.627 12.4764 11.6271 12.4764 11.6272 12.4763C11.9336 12.1936 12.3378 12.0456 12.7566 12.0641C13.4867 12.0961 14.0786 12.6221 14.2178 13.3125ZM12.5168 11.4441C12.2693 11.4632 12.029 11.5239 11.8049 11.6226C11.9561 10.687 12.2741 9.77093 12.7531 8.89025C13.2934 8.64394 13.9407 8.46566 14.598 8.37669C13.5461 9.20828 12.7935 10.3141 12.5168 11.4441ZM14.2844 5.92382C12.661 7.43379 11.4915 9.44656 11.169 11.6492C10.9187 11.512 10.6355 11.4376 10.3428 11.4376C10.0428 11.4376 9.7503 11.5163 9.49302 11.6627C9.38773 11.5324 9.27233 11.4106 9.14711 11.2983C9.3157 10.9287 9.59167 9.821 10.6507 8.53356C11.596 7.38404 12.8736 6.47454 14.2844 5.92382ZM11.0516 4.09383C10.5149 5.40704 10.1974 6.78901 10.1043 8.21534C9.62145 8.81603 9.22636 9.46634 8.92692 10.1539C8.8178 9.48296 8.64874 8.82169 8.42389 8.18147C8.7358 6.52641 9.69095 5.05705 11.0516 4.09383ZM4.32563 3.45783C5.905 4.7148 7.1194 6.39792 7.80718 8.31053C8.07886 9.06565 8.26727 9.85299 8.36708 10.6507L8.38486 10.7929C7.97452 10.6004 7.52649 10.5 7.06156 10.5C6.84996 10.5 6.64106 10.5215 6.43656 10.563V9.91874C6.43656 6.3336 4.65766 4.09711 4.32563 3.45783ZM5.65819 8.17744C5.75962 8.75019 5.81156 9.33559 5.81156 9.91878V10.7606C5.6959 10.8112 5.58359 10.8685 5.47512 10.9326C4.53744 8.86969 3.04654 7.04941 1.3013 5.57617C3.05226 5.8446 4.68872 6.80548 5.65819 8.17744Z" fill="#696969"/>
<path d="M5.34229 13.9375C5.51487 13.9375 5.65479 13.7976 5.65479 13.625C5.65479 13.4524 5.51487 13.3125 5.34229 13.3125C5.1697 13.3125 5.02979 13.4524 5.02979 13.625C5.02979 13.7976 5.1697 13.9375 5.34229 13.9375Z" fill="#696969"/>
</g>
<defs>
<clipPath id="clip0_1987_29271">
<rect width="16" height="16" fill="white"/>
</clipPath>
</defs>
</svg>
