<svg width="16" height="16" viewBox="0 0 16 16" fill="none" xmlns="http://www.w3.org/2000/svg">
<g clip-path="url(#clip0_1987_29257)">
<path d="M13.8691 0H2.15395C1.38891 0 0.766602 0.621094 0.766602 1.38464V14.6154C0.766602 15.3789 1.38891 16 2.15395 16H13.8691C14.6341 16 15.2564 15.3789 15.2564 14.6154V1.38464C15.2564 0.621094 14.6341 0 13.8691 0V0ZM1.6915 1.38464C1.6915 1.13013 1.89894 0.923096 2.15395 0.923096H13.8691C14.1241 0.923096 14.3315 1.13013 14.3315 1.38464V3.23071H1.6915V1.38464ZM14.3315 14.6154C14.3315 14.8699 14.1241 15.0769 13.8691 15.0769H2.15395C1.89894 15.0769 1.6915 14.8699 1.6915 14.6154V4.15381H14.3315V14.6154Z" fill="#696969"/>
<path d="M11.0951 1.61523H10.1705C9.91508 1.61523 9.70801 1.8219 9.70801 2.07678C9.70801 2.33167 9.91508 2.53833 10.1705 2.53833H11.0951C11.3505 2.53833 11.5576 2.33167 11.5576 2.07678C11.5576 1.8219 11.3505 1.61523 11.0951 1.61523Z" fill="#696969"/>
<path d="M13.5609 1.61523H12.6363C12.3809 1.61523 12.1738 1.8219 12.1738 2.07678C12.1738 2.33167 12.3809 2.53833 12.6363 2.53833H13.5609C13.8163 2.53833 14.0233 2.33167 14.0233 2.07678C14.0233 1.8219 13.8163 1.61523 13.5609 1.61523Z" fill="#696969"/>
<path d="M3.54248 9.61584C3.54248 12.0759 5.54774 14.0774 8.01264 14.0774C10.4777 14.0774 12.4829 12.0759 12.4829 9.61584C12.4829 9.49609 12.478 9.37744 12.4687 9.26013C12.4687 9.25952 12.4686 9.25891 12.4686 9.25842C12.2855 6.96484 10.3571 5.1543 8.01264 5.1543C5.66834 5.1543 3.73989 6.96484 3.55679 9.25842C3.55667 9.25891 3.55667 9.25952 3.55667 9.26013C3.54737 9.37744 3.54248 9.49609 3.54248 9.61584ZM8.01264 13.1543C6.13715 13.1543 4.5974 11.6932 4.47533 9.85181C4.57514 9.89282 4.66357 9.94702 4.76447 10.0089C5.03722 10.1765 5.37687 10.3851 6.00872 10.3851C6.64057 10.3851 6.9801 10.1766 7.25297 10.009C7.47912 9.87012 7.64241 9.76978 8.01251 9.76978C8.38262 9.76978 8.54603 9.87012 8.77218 10.009C9.04505 10.1765 9.3847 10.3851 10.0166 10.3851C10.6484 10.3851 10.9881 10.1766 11.2609 10.009C11.3618 9.94702 11.4503 9.89282 11.5499 9.85181C11.428 11.6932 9.88825 13.1543 8.01264 13.1543ZM8.01264 6.07739C9.72374 6.07739 11.1556 7.29346 11.4862 8.90515C11.1737 8.97913 10.9596 9.11023 10.7762 9.22278C10.5501 9.36169 10.3867 9.46204 10.0166 9.46204C9.64644 9.46204 9.48304 9.36169 9.25689 9.22278C8.98402 9.05518 8.64449 8.84656 8.01251 8.84656C7.38067 8.84656 7.04114 9.05518 6.76826 9.22278C6.54211 9.36169 6.37871 9.46204 6.00872 9.46204C5.63862 9.46204 5.47521 9.36169 5.24906 9.22278C5.06572 9.11011 4.85168 8.979 4.53918 8.90515C4.86978 7.29346 6.30165 6.07739 8.01264 6.07739Z" fill="#696969"/>
</g>
<defs>
<clipPath id="clip0_1987_29257">
<rect width="16" height="16" fill="white"/>
</clipPath>
</defs>
</svg>
