<svg width="16" height="16" viewBox="0 0 16 16" fill="none" xmlns="http://www.w3.org/2000/svg">
<g clip-path="url(#clip0_1987_29337)">
<path d="M5.79102 12.4062C5.66155 12.4062 5.55664 12.5112 5.55664 12.6406V13.6508C5.55664 13.7802 5.66155 13.8852 5.79102 13.8852H10.2105C10.3399 13.8852 10.4448 13.7802 10.4448 13.6508V12.6406C10.4448 12.5112 10.3399 12.4062 10.2105 12.4062H5.79102ZM9.97608 13.4164H6.02539V12.875H9.97608V13.4164Z" fill="#696969"/>
<path d="M9.49804 3.54125V2.75978C9.49804 2.63034 9.39314 2.52541 9.26367 2.52541H8.74045V1.47891H10.0213C10.429 1.47891 10.7608 1.14719 10.7608 0.739438C10.7608 0.331688 10.429 0 10.0213 0H6.0088C5.81123 0 5.62551 0.0769063 5.48592 0.216594L4.67108 1.03147C4.5298 1.17272 4.45205 1.3605 4.45205 1.56022C4.45205 1.75994 4.5298 1.94775 4.67105 2.08897C4.8123 2.23019 5.00005 2.30797 5.1998 2.30797C5.39955 2.30797 5.5873 2.23019 5.72858 2.08897L6.33861 1.47891H7.26151V2.52541H6.73829C6.60883 2.52541 6.50392 2.63034 6.50392 2.75978V3.54125C5.09692 3.62741 3.97852 4.79887 3.97852 6.22719V12.5956C3.97852 12.7251 4.08342 12.83 4.21289 12.83C4.34236 12.83 4.44727 12.7251 4.44727 12.5956V6.22719C4.44727 5.00153 5.44442 4.00437 6.67008 4.00437H9.33195C10.5576 4.00437 11.5548 5.00153 11.5548 6.22719V7.13906C11.5548 7.2685 11.6597 7.37344 11.7891 7.37344C11.9186 7.37344 12.0235 7.2685 12.0235 7.13906V6.22719C12.0235 4.79891 10.905 3.62744 9.49804 3.54125ZM6.24151 1.01016C6.17936 1.01016 6.11976 1.03484 6.07576 1.07881L5.39711 1.7575C5.34439 1.81022 5.2743 1.83922 5.1998 1.83922C5.1253 1.83922 5.0552 1.81019 5.00251 1.75747C4.94983 1.70478 4.92083 1.63472 4.92083 1.56019C4.92083 1.48566 4.94986 1.41559 5.00255 1.36291L5.81742 0.548C5.86855 0.496906 5.93651 0.46875 6.00883 0.46875H10.0213C10.1706 0.46875 10.292 0.590187 10.292 0.739469C10.292 0.88875 10.1706 1.01019 10.0213 1.01019H6.24151V1.01016ZM7.73026 1.47891H8.2717V2.52541H7.73026V1.47891ZM9.02929 2.99416V3.53562H6.97267V2.99416H9.02929Z" fill="#696969"/>
<path d="M11.7891 8.00195C11.6597 8.00195 11.5548 8.10689 11.5548 8.23633V14.8191C11.5548 15.212 11.235 15.5316 10.8419 15.5316H5.16008C4.76705 15.5316 4.44727 15.212 4.44727 14.8191V13.6929C4.44727 13.5635 4.34236 13.4585 4.21289 13.4585C4.08342 13.4585 3.97852 13.5635 3.97852 13.6929V14.8191C3.97852 15.4705 4.50855 16.0004 5.16008 16.0004H10.8419C11.4935 16.0004 12.0235 15.4705 12.0235 14.8191V8.23633C12.0235 8.10689 11.9186 8.00195 11.7891 8.00195Z" fill="#696969"/>
<path d="M8.00118 6.43945C6.54905 6.43945 5.36768 7.62086 5.36768 9.07295C5.36768 10.525 6.54908 11.7065 8.00118 11.7065C9.45327 11.7065 10.6347 10.5251 10.6347 9.07295C10.6347 7.62083 9.4533 6.43945 8.00118 6.43945ZM8.00118 11.2377C6.80752 11.2377 5.83643 10.2666 5.83643 9.07298C5.83643 7.87933 6.80752 6.90823 8.00118 6.90823C9.19483 6.90823 10.1659 7.87936 10.1659 9.07298C10.1659 10.2666 9.19483 11.2377 8.00118 11.2377Z" fill="#696969"/>
<path d="M8.0165 7.5127C7.9515 7.5127 7.88941 7.5397 7.84507 7.58726C7.66588 7.77948 6.77197 8.76973 6.77197 9.3886C6.77197 10.0748 7.33025 10.6331 8.0165 10.6331C8.70275 10.6331 9.26104 10.0748 9.26104 9.3886C9.26104 8.76973 8.36716 7.77948 8.18794 7.58726C8.1436 7.53973 8.0815 7.5127 8.0165 7.5127ZM8.0165 10.1644C7.58875 10.1644 7.24072 9.81635 7.24072 9.3886C7.24072 9.11263 7.65132 8.52657 8.0165 8.09941C8.38172 8.52657 8.79229 9.11263 8.79229 9.3886C8.79229 9.81638 8.44425 10.1644 8.0165 10.1644Z" fill="#696969"/>
</g>
<defs>
<clipPath id="clip0_1987_29337">
<rect width="16" height="16" fill="white"/>
</clipPath>
</defs>
</svg>
