<svg width="17" height="16" viewBox="0 0 17 16" fill="none" xmlns="http://www.w3.org/2000/svg">
<g clip-path="url(#clip0_1987_27651)">
<path d="M7.54606 0C3.66097 0 0.5 3.16097 0.5 7.04606C0.5 10.9314 3.66097 14.0921 7.54606 14.0921C11.4314 14.0921 14.5921 10.9314 14.5921 7.04606C14.5921 3.16097 11.4314 0 7.54606 0ZM7.54606 12.7913C4.37816 12.7913 1.80081 10.214 1.80081 7.04609C1.80081 3.87819 4.37816 1.30081 7.54606 1.30081C10.714 1.30081 13.2913 3.87816 13.2913 7.04606C13.2913 10.214 10.714 12.7913 7.54606 12.7913Z" fill="white"/>
<path d="M16.31 14.8893L12.581 11.1603C12.3269 10.9062 11.9154 10.9062 11.6613 11.1603C11.4072 11.4142 11.4072 11.8261 11.6613 12.08L15.3903 15.809C15.5173 15.936 15.6836 15.9995 15.8501 15.9995C16.0164 15.9995 16.1829 15.936 16.31 15.809C16.5641 15.5551 16.5641 15.1432 16.31 14.8893Z" fill="white"/>
</g>
<defs>
<clipPath id="clip0_1987_27651">
<rect width="16" height="16" fill="white" transform="translate(0.5)"/>
</clipPath>
</defs>
</svg>
