<svg width="16" height="16" viewBox="0 0 16 16" fill="none" xmlns="http://www.w3.org/2000/svg">
<path d="M14.5938 1.89258H1.40625C0.630844 1.89258 0 2.51895 0 3.28885V11.6045C0 12.3744 0.630844 13.0007 1.40625 13.0007H2.03125V13.5282C2.03125 13.7853 2.24113 13.9936 2.5 13.9936C2.75887 13.9936 2.96875 13.7853 2.96875 13.5282V13.0007H13.0312V13.5282C13.0312 13.7853 13.2411 13.9936 13.5 13.9936C13.7589 13.9936 13.9688 13.7853 13.9688 13.5282V13.0007H14.5938C15.3692 13.0007 16 12.3744 16 11.6045V3.28885C16 2.51895 15.3692 1.89258 14.5938 1.89258ZM11.0312 12.0699H1.40625C1.14778 12.0699 0.9375 11.8611 0.9375 11.6045V3.28885C0.9375 3.03222 1.14778 2.82343 1.40625 2.82343H11.0312V12.0699ZM15.0625 11.6045C15.0625 11.8611 14.8522 12.0699 14.5938 12.0699H11.9688V5.05747H15.0625V11.6045ZM15.0625 4.12662H11.9688V2.82343H14.5938C14.8522 2.82343 15.0625 3.03222 15.0625 3.28885V4.12662Z" fill="#696969"/>
<path d="M13.0408 10.6403C13.0935 10.8925 13.3327 11.054 13.592 11.0058C13.8467 10.9531 14.0085 10.7148 13.9601 10.4585C13.9012 10.1792 13.6212 10.0266 13.3645 10.1041C13.1234 10.1805 12.9971 10.4087 13.0408 10.6403Z" fill="#696969"/>
<path d="M13.0408 8.65492C13.0935 8.90712 13.3327 9.06869 13.592 9.02044C13.8467 8.96775 14.0085 8.72942 13.9601 8.47309C13.9012 8.19374 13.6212 8.04124 13.3645 8.11875C13.1234 8.19514 12.9971 8.42332 13.0408 8.65492Z" fill="#696969"/>
<path d="M13.0408 6.66859C13.0935 6.92079 13.3327 7.08235 13.592 7.0341C13.8467 6.98142 14.0085 6.74309 13.9601 6.48676C13.9012 6.20741 13.6212 6.05491 13.3645 6.13242C13.1234 6.20881 12.9971 6.43699 13.0408 6.66859Z" fill="#696969"/>
<path d="M3.4375 11.0145H8.5625C9.33791 11.0145 9.96875 10.3881 9.96875 9.61818V5.27421C9.96875 4.5043 9.33791 3.87793 8.5625 3.87793H3.4375C2.66209 3.87793 2.03125 4.5043 2.03125 5.27421V9.61818C2.03125 10.3881 2.66209 11.0145 3.4375 11.0145ZM2.96875 5.27421C2.96875 5.01757 3.17903 4.80878 3.4375 4.80878H8.5625C8.82097 4.80878 9.03125 5.01757 9.03125 5.27421V9.61818C9.03125 9.87481 8.82097 10.0836 8.5625 10.0836H3.4375C3.17903 10.0836 2.96875 9.87481 2.96875 9.61818V5.27421Z" fill="#696969"/>
</svg>
