<svg width="16" height="16" viewBox="0 0 16 16" fill="none" xmlns="http://www.w3.org/2000/svg">
<g clip-path="url(#clip0_1987_29290)">
<path d="M2.24949 2.5C1.97338 2.5 1.74951 2.72383 1.74951 2.99998V4.4999C1.74951 4.77604 1.97338 4.99988 2.24949 4.99988C2.5256 4.99988 2.74946 4.77604 2.74946 4.4999V2.99998C2.74946 2.72383 2.5256 2.5 2.24949 2.5Z" fill="#696969"/>
<path d="M2.24949 8.5C1.97338 8.5 1.74951 8.72383 1.74951 8.99997V10.4999C1.74951 10.776 1.97338 10.9999 2.24949 10.9999C2.5256 10.9999 2.74946 10.776 2.74946 10.4999V8.99997C2.74946 8.72383 2.5256 8.5 2.24949 8.5Z" fill="#696969"/>
<path d="M11.4594 13.704C11.8046 13.704 12.0844 13.4242 12.0844 13.0791C12.0844 12.7339 11.8046 12.4541 11.4594 12.4541C11.1143 12.4541 10.8345 12.7339 10.8345 13.0791C10.8345 13.4242 11.1143 13.704 11.4594 13.704Z" fill="#696969"/>
<path d="M9.95749 11.5764C9.76222 11.7717 9.76222 12.0882 9.95749 12.2835C10.1528 12.4788 10.4693 12.4787 10.6645 12.2835C11.1032 11.8449 11.8169 11.8449 12.2555 12.2835C12.3531 12.3811 12.4811 12.43 12.609 12.43C13.0505 12.43 13.2784 11.8923 12.9625 11.5764C12.1341 10.748 10.786 10.7479 9.95749 11.5764Z" fill="#696969"/>
<path d="M14.0227 10.5156C12.6062 9.0991 10.3132 9.09882 8.89643 10.5156C8.70119 10.7109 8.70119 11.0274 8.89643 11.2227C9.09167 11.4179 9.40822 11.4179 9.60349 11.2227C10.6292 10.1969 12.2897 10.1968 13.3156 11.2227C13.5108 11.4179 13.8274 11.418 14.0226 11.2227C14.2179 11.0274 14.2179 10.7109 14.0227 10.5156Z" fill="#696969"/>
<path d="M9.50001 7.469C9.50001 7.24719 9.50001 1.47139 9.50001 1.24994C9.50001 0.560722 8.93928 0 8.25007 0H1.25042C0.56121 0 0.000488281 0.560722 0.000488281 1.24994V15.4992C0.000488281 15.7754 0.224352 15.9992 0.500463 15.9992H9.00003C9.26614 15.9992 9.48307 15.7911 9.49851 15.5289C12.5311 17.0143 15.9997 14.8003 15.9997 11.4994C15.9997 8.15646 12.4688 5.99001 9.50001 7.469ZM1.00044 1.24994C1.00044 1.1121 1.11259 0.999949 1.25042 0.999949H8.25007C8.38791 0.999949 8.50006 1.1121 8.50006 1.24994V6.49967H1.00044V1.24994ZM8.50006 14.9992H1.00044V7.49962H8.50006V8.14802C6.50053 9.9404 6.49978 13.0577 8.50006 14.8508V14.9992ZM11.4999 14.9992C9.57 14.9992 8.00008 13.4293 8.00008 11.4994C8.00008 9.56951 9.57 7.99959 11.4999 7.99959C13.4298 7.99959 14.9997 9.56951 14.9997 11.4994C14.9997 13.4293 13.4298 14.9992 11.4999 14.9992Z" fill="#696969"/>
</g>
<defs>
<clipPath id="clip0_1987_29290">
<rect width="16" height="16" fill="white"/>
</clipPath>
</defs>
</svg>
