<svg width="16" height="16" viewBox="0 0 16 16" fill="none" xmlns="http://www.w3.org/2000/svg">
<g clip-path="url(#clip0_1987_29297)">
<path d="M3.77736 2.03809C2.7553 2.03809 1.92383 2.86959 1.92383 3.89162C1.92383 4.91365 2.75533 5.74515 3.77736 5.74515C4.79939 5.74515 5.63089 4.91368 5.63089 3.89162C5.63089 2.86955 4.79942 2.03809 3.77736 2.03809ZM3.77736 4.80765C3.27223 4.80765 2.86133 4.39674 2.86133 3.89162C2.86133 3.38649 3.27227 2.97559 3.77736 2.97559C4.28245 2.97559 4.69339 3.38652 4.69339 3.89162C4.69339 4.39671 4.28248 4.80765 3.77736 4.80765Z" fill="#696969"/>
<path d="M11.5657 14.4682L9.90625 9.78794H6.69056L5.21806 6.29297H2.815L0.982562 11.2769C0.9085 11.4783 0.893094 11.6933 0.933 11.8984H0V12.8359H7.93522L9.49803 15.4426C9.71119 15.7981 10.0916 16.0004 10.4848 16.0004C10.6403 16.0004 10.7978 15.9688 10.9477 15.9025C11.4938 15.661 11.7653 15.031 11.5657 14.4682ZM3.29828 11.8984L3.8565 11.0034L4.33012 11.8984H3.29828ZM10.5685 15.0451C10.4713 15.0881 10.3567 15.0517 10.3021 14.9605L8.46622 11.8984H5.39078L3.92313 9.12519L2.25841 11.7941C2.21766 11.8594 2.14741 11.8984 2.07044 11.8984C1.96991 11.8984 1.91347 11.839 1.88878 11.8036C1.86409 11.7682 1.82784 11.6947 1.8625 11.6004L3.46919 7.2305H4.59575L6.06825 10.7255H9.24397L10.6821 14.7815C10.7188 14.8849 10.6689 15.0007 10.5685 15.0451Z" fill="#696969"/>
<path d="M11.2405 3.52072C11.2405 2.92659 11.0002 2.60056 10.8247 2.3625C10.6795 2.16543 10.5918 2.04647 10.5918 1.76047C10.5918 1.47443 10.6795 1.3555 10.8247 1.15837C11.0001 0.92031 11.2405 0.594278 11.2405 0.00012207H10.303C10.303 0.286122 10.2153 0.405091 10.07 0.602185C9.89461 0.840247 9.6543 1.16628 9.6543 1.76043C9.6543 2.35456 9.89458 2.68059 10.07 2.91865C10.2153 3.11572 10.303 3.23469 10.303 3.52069C10.303 3.80678 10.2153 3.92575 10.07 4.12287C9.89458 4.36103 9.6543 4.68709 9.6543 5.28128C9.6543 5.87547 9.89455 6.20153 10.07 6.43959C10.2153 6.63672 10.303 6.75572 10.303 7.04178H11.2405C11.2405 6.44759 11.0002 6.12153 10.8247 5.88344C10.6795 5.68631 10.5918 5.56734 10.5918 5.28125C10.5918 4.99515 10.6795 4.87622 10.8247 4.67906C11.0002 4.44097 11.2405 4.1149 11.2405 3.52072Z" fill="#696969"/>
<path d="M13.6198 3.5205C13.6198 2.92637 13.3796 2.60034 13.2041 2.36228C13.0589 2.16522 12.9712 2.04625 12.9712 1.76025C12.9712 1.47422 13.0589 1.35528 13.2041 1.15816C13.3795 0.920187 13.6198 0.594156 13.6198 0H12.6823C12.6823 0.286 12.5947 0.404969 12.4494 0.602062C12.274 0.840125 12.0337 1.16616 12.0337 1.76031C12.0337 2.35444 12.274 2.68047 12.4494 2.91853C12.5947 3.11559 12.6823 3.23456 12.6823 3.52056C12.6823 3.80665 12.5947 3.92562 12.4494 4.12275C12.274 4.36084 12.0337 4.6869 12.0337 5.28106C12.0337 5.87522 12.2739 6.20131 12.4494 6.43937C12.5947 6.6365 12.6823 6.7555 12.6823 7.04156H13.6198C13.6198 6.44737 13.3796 6.12131 13.2041 5.88322C13.0589 5.68609 12.9712 5.56712 12.9712 5.28103C12.9712 4.99494 13.0589 4.876 13.2041 4.67884C13.3796 4.44075 13.6198 4.11469 13.6198 3.5205Z" fill="#696969"/>
<path d="M16.0007 3.52059C16.0007 2.92647 15.7604 2.60044 15.585 2.36237C15.4397 2.16531 15.3521 2.04634 15.3521 1.76034C15.3521 1.47431 15.4397 1.35537 15.585 1.15825C15.7604 0.920187 16.0007 0.594156 16.0007 0H15.0632C15.0632 0.286 14.9755 0.404969 14.8303 0.602062C14.6549 0.840125 14.4146 1.16616 14.4146 1.76031C14.4146 2.35444 14.6548 2.68047 14.8303 2.91853C14.9755 3.11559 15.0632 3.23456 15.0632 3.52056C15.0632 3.80665 14.9755 3.92562 14.8303 4.12275C14.6548 4.36084 14.4146 4.6869 14.4146 5.28106C14.4146 5.87522 14.6548 6.20131 14.8303 6.43937C14.9755 6.6365 15.0632 6.7555 15.0632 7.04156H16.0007C16.0007 6.44737 15.7605 6.12131 15.585 5.88322C15.4397 5.68609 15.3521 5.56712 15.3521 5.28103C15.3521 4.99494 15.4397 4.876 15.585 4.67884C15.7605 4.44084 16.0007 4.11478 16.0007 3.52059Z" fill="#696969"/>
</g>
<defs>
<clipPath id="clip0_1987_29297">
<rect width="16" height="16" fill="white"/>
</clipPath>
</defs>
</svg>
