<svg width="16" height="16" viewBox="0 0 16 16" fill="none" xmlns="http://www.w3.org/2000/svg">
<g clip-path="url(#clip0_1987_29313)">
<path d="M0.596492 11.432C6.67702 9.70346 8.89952 13.1964 15.649 11.4346C15.8995 11.3692 16.0495 11.1131 15.9841 10.8627C15.9188 10.6122 15.6627 10.4622 15.4122 10.5275C14.0871 10.8734 12.9386 11.0015 11.8985 11.0028L10.5395 8.81252C11.3428 9.81068 12.8358 9.86821 13.7105 8.93802C14.0951 8.52908 14.2974 7.99483 14.2802 7.43371C14.2226 5.55265 11.9178 4.70862 10.6486 6.05827C10.0371 6.70846 9.92621 7.63293 10.2705 8.37887L8.41096 5.38187L11.1704 4.58559C12.0274 4.3383 12.4324 3.35737 11.997 2.57715C11.6808 2.01065 11.0246 1.74059 10.4014 1.92046L6.22377 3.12599C5.14062 3.43859 4.65555 4.69771 5.2503 5.65633L6.51299 7.69143C5.60277 8.25643 2.7158 10.0467 2.68515 10.0679C1.96049 10.1445 1.18443 10.2902 0.340211 10.5302C0.0912107 10.601 -0.0532893 10.8602 0.0174919 11.1092C0.0882419 11.3583 0.347586 11.5027 0.596492 11.432ZM11.3315 6.70058C11.7727 6.2314 12.5093 6.21012 12.9771 6.65008C13.4458 7.09087 13.4685 7.82699 13.0276 8.29577C12.5869 8.7644 11.8507 8.78712 11.382 8.34627C10.9132 7.90546 10.8906 7.16933 11.3315 6.70058ZM7.55668 7.59552L6.0469 5.16212C5.78024 4.73233 5.99733 4.16712 6.48365 4.02677L10.6612 2.82124C10.8633 2.76287 11.0758 2.85046 11.1783 3.03402C11.3197 3.28737 11.1876 3.60487 10.9105 3.68484L7.55637 4.65274C7.25783 4.7389 7.12449 5.08671 7.28802 5.35024L10.7657 10.9553C8.57861 10.7717 6.80152 10.1121 4.55133 10.0119L7.40552 8.24093C7.62549 8.10446 7.69318 7.81549 7.55668 7.59552Z" fill="#696969"/>
<path d="M15.4123 12.7151C8.95468 14.4008 6.68871 10.913 0.340211 12.7178C0.0912107 12.7885 -0.0532893 13.0478 0.0174919 13.2968C0.0882732 13.5459 0.347617 13.6904 0.596554 13.6195C6.67709 11.891 8.89959 15.384 15.6491 13.6222C15.8996 13.5568 16.0496 13.3007 15.9842 13.0503C15.9188 12.7998 15.6627 12.6498 15.4123 12.7151Z" fill="#696969"/>
</g>
<defs>
<clipPath id="clip0_1987_29313">
<rect width="16" height="16" fill="white"/>
</clipPath>
</defs>
</svg>
