<svg width="16" height="16" viewBox="0 0 16 16" fill="none" xmlns="http://www.w3.org/2000/svg">
<path d="M7.99719 11.3223C7.23247 11.3223 6.61035 11.9424 6.61035 12.7042C6.61035 13.4662 7.23247 14.0866 7.99719 14.0866C8.76216 14.0866 9.38428 13.4662 9.38428 12.7042C9.38428 11.9424 8.76203 11.3223 7.99719 11.3223Z" fill="#696969"/>
<path d="M11.3809 9.43864C10.478 8.53625 9.27616 8.03906 7.99722 8.03906C6.7232 8.03906 5.52464 8.53297 4.62199 9.42968C4.25743 9.79248 4.2568 10.3836 4.62048 10.747C4.79715 10.9239 5.03237 11.0211 5.28273 11.0211C5.53196 11.0211 5.76629 10.9244 5.94271 10.749C6.49202 10.2031 7.22165 9.9024 7.99722 9.9024C8.77569 9.9024 9.50734 10.205 10.057 10.7542C10.2337 10.9306 10.4688 11.028 10.7189 11.028C10.9684 11.028 11.2026 10.9314 11.3791 10.7559C11.7442 10.3931 11.7448 9.80233 11.3809 9.43864Z" fill="#696969"/>
<path d="M15.7269 5.10691C13.6627 3.04776 10.9171 1.91406 7.99658 1.91406C5.07993 1.91406 2.33718 3.04511 0.273581 5.09937C-0.0909834 5.46217 -0.0912358 6.05324 0.273077 6.41667C0.449617 6.59271 0.684458 6.6895 0.934316 6.6895C1.18405 6.6895 1.41864 6.59309 1.59518 6.41718C3.30569 4.71461 5.57902 3.77676 7.99658 3.77676C10.4177 3.77676 12.6933 4.71651 14.4042 6.42361C14.5807 6.59977 14.8159 6.69694 15.0657 6.69694C15.3153 6.69694 15.5498 6.60003 15.7263 6.42437C16.091 6.06129 16.0913 5.46999 15.7269 5.10691Z" fill="#696969"/>
<path d="M13.4993 7.32691C12.03 5.86095 10.076 5.05371 7.99743 5.05371C5.92261 5.05371 3.97157 5.85843 2.50347 7.31921C2.32668 7.495 2.22938 7.72883 2.229 7.9778C2.229 8.22653 2.32592 8.46061 2.50246 8.63665C2.679 8.81281 2.91397 8.90997 3.16382 8.90997C3.4133 8.90997 3.64789 8.81306 3.82469 8.63765C4.93996 7.52806 6.42194 6.91679 7.99743 6.91679C9.5762 6.91679 11.0602 7.5302 12.1762 8.64359C12.353 8.82 12.5879 8.91717 12.8379 8.91717C13.0875 8.91717 13.3222 8.82025 13.4985 8.64459C13.675 8.46881 13.7726 8.23498 13.7727 7.98601C13.7729 7.73703 13.6758 7.5032 13.4993 7.32691Z" fill="#696969"/>
</svg>
